<mxfile host="65bd71144e">
    <diagram id="1KA2IejnOoCtSE7xL5BW" name="Page-1">
        <mxGraphModel dx="1128" dy="1868" grid="1" gridSize="10" guides="1" tooltips="1" connect="1" arrows="1" fold="1" page="1" pageScale="1" pageWidth="827" pageHeight="1169" background="#ffffff" math="0" shadow="0">
            <root>
                <mxCell id="0"/>
                <mxCell id="1" parent="0"/>
                <mxCell id="9" style="edgeStyle=none;html=1;entryX=0.5;entryY=0;entryDx=0;entryDy=0;" parent="1" target="5" edge="1">
                    <mxGeometry relative="1" as="geometry">
                        <Array as="points">
                            <mxPoint x="325" y="95"/>
                        </Array>
                        <mxPoint x="480" y="95" as="sourcePoint"/>
                    </mxGeometry>
                </mxCell>
                <mxCell id="12" style="edgeStyle=none;html=1;entryX=0;entryY=0.5;entryDx=0;entryDy=0;fillColor=#a20025;strokeColor=#6F0000;" parent="1" source="2" target="11" edge="1">
                    <mxGeometry relative="1" as="geometry"/>
                </mxCell>
                <mxCell id="2" value="argoCD" style="rounded=0;whiteSpace=wrap;html=1;" parent="1" vertex="1">
                    <mxGeometry x="480" y="60" width="90" height="60" as="geometry"/>
                </mxCell>
                <mxCell id="4" style="edgeStyle=none;html=1;entryX=0.021;entryY=0.394;entryDx=0;entryDy=0;exitX=1;exitY=0.5;exitDx=0;exitDy=0;fillColor=#0050ef;strokeColor=#001DBC;startArrow=classic;startFill=1;entryPerimeter=0;" parent="1" source="3" edge="1" target="5">
                    <mxGeometry relative="1" as="geometry">
                        <mxPoint x="280" y="245" as="targetPoint"/>
                        <Array as="points"/>
                    </mxGeometry>
                </mxCell>
                <mxCell id="3" value="clone local" style="rounded=0;whiteSpace=wrap;html=1;" parent="1" vertex="1">
                    <mxGeometry x="65" y="170" width="90" height="60" as="geometry"/>
                </mxCell>
                <mxCell id="45" style="edgeStyle=none;html=1;strokeWidth=3;fontColor=#000000;startArrow=none;startFill=0;fillColor=#008a00;strokeColor=#005700;" edge="1" parent="1" source="5" target="7">
                    <mxGeometry relative="1" as="geometry"/>
                </mxCell>
                <mxCell id="5" value="Github" style="rounded=0;whiteSpace=wrap;html=1;" parent="1" vertex="1">
                    <mxGeometry x="280" y="235" width="90" height="60" as="geometry"/>
                </mxCell>
                <mxCell id="46" style="edgeStyle=none;html=1;entryX=0.5;entryY=1;entryDx=0;entryDy=0;strokeWidth=3;fontColor=#000000;startArrow=none;startFill=0;fillColor=#0050ef;strokeColor=#001DBC;" edge="1" parent="1" source="7" target="2">
                    <mxGeometry relative="1" as="geometry"/>
                </mxCell>
                <mxCell id="7" value="Dockerhub" style="rounded=0;whiteSpace=wrap;html=1;" parent="1" vertex="1">
                    <mxGeometry x="480" y="235" width="90" height="60" as="geometry"/>
                </mxCell>
                <mxCell id="33" value="" style="edgeStyle=none;html=1;fontColor=#000000;startArrow=none;startFill=0;" edge="1" parent="1" source="11" target="32">
                    <mxGeometry relative="1" as="geometry"/>
                </mxCell>
                <mxCell id="44" value="" style="edgeStyle=none;html=1;strokeWidth=3;fontColor=#000000;startArrow=none;startFill=0;" edge="1" parent="1" source="11" target="32">
                    <mxGeometry relative="1" as="geometry"/>
                </mxCell>
                <mxCell id="11" value="API déployée" style="rounded=0;whiteSpace=wrap;html=1;" parent="1" vertex="1">
                    <mxGeometry x="670" y="60" width="90" height="60" as="geometry"/>
                </mxCell>
                <mxCell id="13" value="&lt;font color=&quot;#0000ff&quot;&gt;Récupère l'image dont le tag est défini dans deployment.yaml&lt;/font&gt;" style="text;html=1;strokeColor=none;fillColor=none;align=center;verticalAlign=middle;whiteSpace=wrap;rounded=0;" parent="1" vertex="1">
                    <mxGeometry x="360" y="140" width="160" height="30" as="geometry"/>
                </mxCell>
                <mxCell id="17" style="edgeStyle=none;html=1;entryX=0;entryY=0.5;entryDx=0;entryDy=0;exitX=1;exitY=0.5;exitDx=0;exitDy=0;fillColor=#0050ef;strokeColor=#001DBC;startArrow=classic;startFill=1;" parent="1" source="16" target="5" edge="1">
                    <mxGeometry relative="1" as="geometry">
                        <Array as="points"/>
                    </mxGeometry>
                </mxCell>
                <mxCell id="16" value="clone local" style="rounded=0;whiteSpace=wrap;html=1;" parent="1" vertex="1">
                    <mxGeometry x="65" y="275" width="90" height="60" as="geometry"/>
                </mxCell>
                <mxCell id="18" value="" style="shape=image;verticalLabelPosition=bottom;labelBackgroundColor=default;verticalAlign=top;aspect=fixed;imageAspect=0;image=https://static.thenounproject.com/png/962492-200.png;" parent="1" vertex="1">
                    <mxGeometry x="75" y="335" width="70" height="70" as="geometry"/>
                </mxCell>
                <mxCell id="19" value="" style="shape=image;verticalLabelPosition=bottom;labelBackgroundColor=default;verticalAlign=top;aspect=fixed;imageAspect=0;image=https://static.thenounproject.com/png/962492-200.png;" parent="1" vertex="1">
                    <mxGeometry x="75" y="92" width="70" height="70" as="geometry"/>
                </mxCell>
                <mxCell id="20" value="" style="shape=image;verticalLabelPosition=bottom;labelBackgroundColor=default;verticalAlign=top;aspect=fixed;imageAspect=0;image=https://upload.wikimedia.org/wikipedia/commons/thumb/9/97/Document_icon_%28the_Noun_Project_27904%29.svg/1024px-Document_icon_%28the_Noun_Project_27904%29.svg.png;labelBorderColor=#003300;imageBorder=default;" vertex="1" parent="1">
                    <mxGeometry x="400" y="275" width="40" height="40" as="geometry"/>
                </mxCell>
                <mxCell id="24" value="" style="shape=image;verticalLabelPosition=bottom;labelBackgroundColor=default;verticalAlign=top;aspect=fixed;imageAspect=0;image=https://upload.wikimedia.org/wikipedia/commons/thumb/3/3b/Eo_circle_green_checkmark.svg/2048px-Eo_circle_green_checkmark.svg.png;" vertex="1" parent="1">
                    <mxGeometry x="400" y="220" width="40" height="40" as="geometry"/>
                </mxCell>
                <mxCell id="28" value="" style="shape=image;verticalLabelPosition=bottom;labelBackgroundColor=default;verticalAlign=top;aspect=fixed;imageAspect=0;image=https://cdn-icons-png.flaticon.com/512/73/73989.png;" vertex="1" parent="1">
                    <mxGeometry x="600" y="50" width="42" height="42" as="geometry"/>
                </mxCell>
                <mxCell id="37" style="edgeStyle=none;html=1;fontColor=#000000;startArrow=none;startFill=0;fillColor=#60a917;strokeColor=#2D7600;strokeWidth=3;" edge="1" parent="1" source="32">
                    <mxGeometry relative="1" as="geometry">
                        <mxPoint x="720" y="59.99999999999977" as="targetPoint"/>
                    </mxGeometry>
                </mxCell>
                <mxCell id="38" value="" style="edgeStyle=none;html=1;fontColor=#000000;startArrow=none;startFill=0;" edge="1" parent="1" source="29" target="32">
                    <mxGeometry relative="1" as="geometry"/>
                </mxCell>
                <mxCell id="29" value="" style="shape=image;verticalLabelPosition=bottom;labelBackgroundColor=default;verticalAlign=top;aspect=fixed;imageAspect=0;image=data:image/jpeg,/9j/4AAQSkZJRgABAQAAAQABAAD/2wCEAAkGBxAPDxAPEBAQEBAPDw8PDw8NEA8NDw8QFREWFhUVFRUYHSggGBomGxUVITEhJSkrLi4uFx8zODMsNygtLisBCgoKDg0OGhAQFyslHx8tLS0vLS0rLy0tLS0rLS0vLS4rKystLS0rLS0tLS0tLS0tLSswLS0tLS0tLSstKystK//AABEIAOEA4QMBIgACEQEDEQH/xAAbAAABBQEBAAAAAAAAAAAAAAAAAQIDBAYFB//EAEMQAAIBAgEIBgYIBAUFAAAAAAABAgMRBAUGEiExQVGREyJhcYGhFDJSscHRFyNCVGJygpIHssLwM0NjouEVNFNz8f/EABsBAAEFAQEAAAAAAAAAAAAAAAABAgMEBQYH/8QAOhEAAQIDAwkHAwIGAwAAAAAAAQACAwQREiExBRNBUWFxkaHwIlKBscHR4QYUMhVCI3KCwtLxYqKy/9oADAMBAAIRAxEAPwD3EAAEIAABCAAAQgDnY/K1Kjqb0p+xHW/HgcDFZbrVdSfRx4Q9bxlt5WKUxlCDAuJqdQ9dA8SrEKViRLwKDWer1p8TjKVL15qPZe75LWcytnBBepCUu2Vor4sz0YcySKMaLliM78AG8zzu5K8yRhj8jXl1xXSqZcrS2aEO5Xfn8iu8fXltqz/S9H3WK6Q9IpPnI78Yh4kDgFMIUMYNCe603tnN98mxtnxY5IckRFzjiUpATVHtZLGclsk13OwJCpAHOGBTSFLHF1VsqT8Xpe8np5TrLbaXerfIqpCpE7JqM3B54+mCidDYcQF06WWF9qDXanpF2jiqc/Vkr8HqfmcDRBwLsLKsZv50dyPK7koXSzDhctOBwKGMqQ36S4PX57TpYfHwnqfVlwex9zNaBlCDFuwOo+hwPnsVV8FzVdAALyhQAACEAAAhAAAIQAACEABXxWJhSg5zdox2vj2LixCQBUpQK3BPq1Ywi5SajGKu29SRmMp5wSneFG8I7HPZN93srz7jn5VyrPES19Wmn1IfGXF+7314ROdnspud2IRoNek+w5+S1peSDe1Ex1auuG/QsIEsUJFD0YyvFKh6QiQ9IE1KkPSESFQooUxOHoYOQqYU9DkNQ5CppTkPSEQ5IKhMSpAkA5IcmFJojXAlSFsKkqpMLjZQ1SvKPu7jq06ikrxd0cVxHUqkqbvHxW5mnKZRdC7MS9vMe42cNSrxIIdeMV3AIqNVTV14remSnRNcHCoNxVMiiAABUIAABCAAAQoqtWMIuUmlGKvJvYkjC5YynLE1L61Ti+pD4vtfl772deVdOfo8H1YP6xr7U90e5e/uOHTRgZSmy45puAx2nVuHmtmRlrIzjsThsHz5b1LBE8UZzLWcCoXhTSlUXrN9aEeztf8AfYZ6eU8RVd5VpvsjOUY8o2RWl8kxozbZIaDhXE+HzfiKhbMOTe8WjcF6OkPSPN4YmvHXGtVT7JyXxL2EznxNF9fRqx39ItGduyUV70ySJkSM0VY4HZged3NK6Rf+0g8lr8rZWpYWGnUeuV1CnHXObXDs7TC5SzsxNVtQl0Md0aTcJ+Mtt+6xz8rY+eJqyqT2vVGO1QgtkV/e25UprWjTk8mQ4LQXgF228DYBh4nyorUCTZDbVwqVcpVa8nd1ajfHTnfnc6uCy3jKDT6SVSO+FZyqp+L1rwZHgKa1E+NpRS1Ft8KG8WXNBG5K8tcbJaKbltMh5Yp4yDlHqzjZVKbd3F8Vxj2nVR5PknKDwuKp1E7Qc9Ca4wlK0/n3pHrBzU/KiXiCz+Jw9R1oIWTNy+acKYHD260UTkVcq5UpYWk6lR6tkYr1py3RiiyjzXPfHutipQv1aF6UFu04t6T773X6UEhKfcxbJwAqfbxTZSWz8SycBeetqTKueGKrNqEnRjuhRbhLxle7fdbuON/1Cu3fpal+OnK/O5XsT4Wlc6tkvChCjGAeHRPjVdC2DDhto1oA68eK7GTM6cdQa+sdaO+GI0qqf6nrXgz0LNzOGljE7fV1Yq86Mmr29qHtL3b9x5zTwt0JDTo1IVab0ZwkpRktz7eKa1NcGUZmQgxQbIDXawPMeuPks+ZlIUYXAB2g+/vivYkPSPMMq5/YqS0aUIUVZdbRc5t7+tLUl4eJmsRlzGVHeeJrzb41alvBJ2RmQ8kxnCriBz8ruaz4eSIzhVxA2Y+V3Ne6WEcTxbAZUx0GpQxFePYqlRx8YyunyNnm/nnJzjSxeinJxjGsloxu9infV4rV2LaNjZMiwxUEOpqx4KGPkyLDFWkOpqx4Lb06jpy0l4rijrU6iklJbGcuUR+EraErP1ZeTFyfOZp1hx7J5HXuOnjrWRFZaFRiuqAAdEqqAAAQg5mXsf6PQlNevLqU1+J7/DW/A6Zg868b0tdwT6lLqdjn9p+5fpKs5GzUIkYm4dbFZlIGdigHAXnrauRDi9bett622RZVxfRUJzXrW0Y/mepPw2+BNE5Wc/8A26/9sf5ZHPSsJsWOxjsCR16Lp4LA+I0HSVkZO70nrb1tva2T4VkNh1OVmds5tVvubULsUaaYlfCjMJWOkpqSKjqgrPeS0rN4nD2Kp3cXSOPXhZkjb1ZhutBWcNirElfGXW05tgYlhBhCtUlSV3ftR7Rhb6EL7dGN++x5FknCdNiKVK19KcIv8uleXlc9guYGW3CsNum8+Q9CsvKlOwN/t6JXI8jyzf0itfb0tS/fpM9XkzzbOvDOGLqNrVUfSrt0utLz0gyEQIr26x5H5Rkqge4awuJYvYAp2LODnZnSOFy2Igq1aPCwVhMXQTQzB1lYsVpqxTIvWWahyzGUKViPA4fSd2W8oraR4Wqoom0K6CSy5daNGMIX3nEyhVTdkS4rHX1I50nfWNDU2FDIvK9f/h/lWWJwSU3epQaotvW5R0U4N87fpNHJHn38I27Yvh9RztUPQpHKz0MMmHtGFfMA+q5efhiHMvaN/EA+qu4CtpRs9sdXetzLZyKE9Cae7f3M65t5Pj52FQ4tuPoeHOqyYrLLt6AAC+olVyjilRo1Kr+xBtJ75bl4uyPMotttt3bbbb3t7WbLPbE6NGFJbas7vtjDX73Ex0DDynEq8N1Dz+KLcybDpCL+95D5qpSplfDurRnFa2uuu+K2crrxLqWoEZbIjoTw9uIIPBaTXFjg4aF5647htjt5eyY6cnUgupJ7vsyd3bu4cjjWO6gRmR4YiQ8Dy2HaF0UN7YjQ5uB6onUqljoUcScyw6MmhzoYKa+EHLp1KtznYlB0xHOVyMQ6JjIZaorDbD7EuFw0qk404q7lOMYrtfwFIAvKkK0uYOT7yniGtUV0cH+OSV34R/mRuLlTJmDjQoworWoLrP2pvXJ+LLVziZyY+4jOeMMBuHVd5K5mZi52IXaNG5NmzL56YLTpxrJNyptRf5W9T8JX/cjUVCniqUZxlCSvGUXGS7GhJSOYEVsQaMd2B5YbUS0UwogeNHlpXlwidncuZSwcqFSUJbpdV+1F7H/faVLHdAtc0Oaag3hdOKOFRgV0MLiS3LE6jiJ2H9MyJ0O9QPgglS4ypcpD5O42wWU9raCiZYSw+x3c1M35Yysm040YNSqT2XXsx/E/Ja+F4or2w2F7zQDr/SbEe2G0vcbgtx/DvAOjg9OUdGVefScH0ajorz03+pGpuQ0oqKUYpKMUoxS1JJKySH3ONjRTFiOedJ69lxkeIYsR0Q6SnSOphKmlBPfv70clsu5MnrlHua+PwLmTIlmPZ7wp6jraqkZvZrqXRAAOkVNYPPatpYmMN1OlFfqk235aJxYFrOGrp4yu/wAej+xKP9JUgc1NG1Fcdvwupl22ITRsCswHyiMgTRKDlIoKlNSTi0mmrNPWmjL5XyLKnecLuG1260o9/FdprpUxrRZkp+JKPtMvBxBwPsdo4FSQJh8F1W4aQvO7DbGuyjkSFS8odSe22pQk+7d4GdxWT6lN9aMre1FN38TsJSfgTQow0d3Tj8+HjQ3LcgTUON+Jv1HH5VKwWJLDbFyyp6JmibnNHI3QwVeaaqTV4p7Ywdtfe/d3soZsZA0nGtWXVTvCEvtvU9Jp/Z/vZt2RzOWMoA1l4Z/mP9v+XDWsXKE2DWEw7/b34a0AIIc8slPK80TDJq4qULhZw5L6eGlFfWxT0fxLfH5GGlDRdnqa1NPcepNGazkyLpJ1qa622cVtltbku3jx9+/kmfDP4EQ3HA6th2Hkdhu1ZGbDf4bzdoOpZCwWHNW2jTpCFs0SDbFzB5Pq1paNOnOT36MXorvk9S8TX5FzShC08Q1Oa1qMfUX5ntl3LV3lOanIMuO2b9Qx4aN5uVWPMw4A7Rv1afjxXAzdzbq4uSlK8KKfWnK6crbVFb327F5HpuBw1OjTjTpxUYRWpceLb3vtG0opJJJJJWSSskuCRJGRys5OxJl19wGA9TrPQAXNzc0+YN9wGA99ZU6Y5MhTHJlJUaKW5PgZ2qR7b+a/+FW4tOdpRfBryHwn2IjXaiD14Jjm1BC0YAB21grKqvKcfU0q9WXtVakuc2xIELleTfFt+ZJBnKRLyV2AFAArMCxErwZNFlRwSFTxCVJPZq9wkSWJWcQMSoyqs6bW0hqU9z8zpjJUIvs7gEVukhNKz+JyRSnr0dF8YWj5bPIlyZm7RTU5RcktinotN9yWtd52I4RX1u64bCyXv1OYs2BGNP5vXHmpTMxrNkPNN6cA24NlMObrCr0QIFxB1putFEolxLhcW03WloiSEsLcBbTdaWhXKxub+HrNycXFt3bpaMbvtTTXkMwmbWGg72lN/wCrJNckkn4nXuOuWhPxw2wIppv9ceamz8YCyHmm9FGlGCUYpRitkYJRS8ETJkSY5Mq2m61WLSpkx8WRJjkxAQcFGQp0xyZFFj0wUZCkuDYy4XEN4TaLv+lgcnpQNz9RdrVP7cLAbG1wbXmTQYmOhoV6sfYq1I8ptCQZViChIXQjBWYMsRZVgyzBlV4Qpos8px2MrRrVI9LV6tSUf8Se6TXE9UizzDOejoYyuuM5T/faf9R0f0o5ufisOloPA0/uTKXr3rCUYTpwnFRcZQhKLSVmnFNMl9EXsrkjyjND+Ik8HSjh69N1qMNUJRlo1KcfZu9Uo8FqtxtZLT/SxhPu1fnR+ZuPl4zTQNqsN8pHa6gaTuWw9EXs+SD0RcFyRj/pYwn3avzo/MPpXwn3avzo/MZmY3cKb9tMdw9eK2Hoi4Lkg9EXBckY/wClfCfd6/Ol8w+lfCfdq/Oj8wzMbuHrxR9tMdw9eK2Hoi4Lkg9Ej7PkjH/SthPu1fnS+YfSvhPu1fnS+YZmN3Cj7aZ7hWw9Ej7K5IPRI+yuSMf9K+E+7V+dL5h9K2E+7V+dL5hmY3cKPtpnuFbD0SPsrkg9Ej7K5Ix/0r4T7tX50fmH0r4T7vX50vmGZjdwo+2mO4VsPRI+yuSD0SPsrkjH/SvhPu9fnS+YfSxhPu1fnR+YZmN3Cj7aY7hWw9EXsrkgWEXBckY/6WMJ93r/ALqPzOHnL/E6delKlhaUqOnFxlUnJdMotWaho6ov8V32Wesc2XjE0s03pzZSYcaWSN6xuWcpVHiq7hWqaDxFZw0ak9HR6WVra9lj1zAJqlTT1tU6ad9buoo8Wyfh+krUof8AkqQj+6SXxPbkZP1UWgQYY/5H/wAgeq1ojQKBSJj0yNMcmcgoCFJcLjbiNjTcExWdAU6fogG1+nuVPPhefZwUtDGYiP8AqSl+/r/1FSDO1n1R0MXpbqtKEr/iV4vyUThwYkdtHuG1bcu61Ca7YPJWIMsQZWgyaDKTmqVWYsxGfuG0a1OruqU7P80Xr8pRNtFnHzuwfS4WTXrUmqi/KlaXk7+BdyNHzE8wnB3ZP9Vw50SaV5zYWw6w6x6NVS2VHYWw6wthKp1lMsFh9gsFUtlNsGiOsLYSqLKZohYfYSwVRZTbCWH2CwtUWUywliSwlgqksplgsSWG2Fqksru5jYTpMbTlupKVV+Csv90onqaMf/D3AaFGpXe2rLQj+SO1rvk3+015599QTOdnXAYMAb44nmaHcqMX8k9D0yND0YVVCU64tOOlKMeLXvsNuWclw0q0Fwd+Sv77DoTLb2s1kDjconmy0nUtQAAd1nCsKiyP8QcNelSrL/Lm4P8ALNbecUvExMGeqZawXT4erS3zg9G/trXHzSPKI/3cxZ1lH11+nQXQZMiWoNnunkb/ADqrUGTQZWgyaDM1zVpK1BkrSaaetNWae9FaEixFlZ7U0rzbLWT3h686e694PjB+q/h4Mo2PQM5sl+kUtKCvVpXceM4749+9f8mC0baj0LJU/wDeS4cT2m3O36/6sd9R+1WYfaCbYWwthbGhVS2UlhLD7BYS0lsplgsPsFgqlsplgsPsFgqiymWFsOsFgtJLKZYSw+wlhapLKbYnwGElWqwpQXWnKMV2cW+xK78CKxvMyMjdHH0ma6842pp/Zpv7Xe/d3lLKE82TgGKccGjWdHDE7BrooYrs22q0uCw0aNOFKHq04qK8FtfaWENQ481c4k1OJWYnIW40W4xNonXOtm9TvKc+CSXe3d+5czi3NRkehoUY8Zdd+OzysaGS4duYB0Nv9B7+CqTbrMKmtXwADqFkIPMc78n9DiptK0K16seF2+uv3a+6SPTjh515L9Jw70VerSvOnba9XWj4rzSK8zDtsuxCuSMfNRb8DcV5vBk8JFWLJosxXBdKrUJEsJFWEiaMis5qFaizMZzZC216K1PXUgtz3zS9/M0UJE0ZEkpNxJSLnIfiNBGo9XG9DXFpqF5c4iWNnlnNtVL1KNoz2uGyMn+H2X5dxk61CUJOM4uLW1SVmdzJz8GbZahm/SDiN/uLttblfhva8XKGwth1hbFuqlDU2wlh9gsFU6ymWFsOsFgqiymWCw+wlhQUllMsJYmp03JqKTbbslFNtvsRrMg5qO6qYhW3ql9p/n+XPgVZudgyrLcU01DSdw9TQKGK9sMVcqWaub7rSVaqrUou8Yv/ADGv6ePHZxN8JCKSSSSSVklqSQpwU/PxJyLbfcBcBqHudJ3YAADIixDEdUpwCBcoKJOuFxlxHIRIVZwGH6WrGG5u8uxLb8vE2Rx838HoQ6RrrVNnZDdz28jsHUZMl81BtEXuv8NHW1Y03FtvoMB0UAAGiqqAAAQvO88cj9DU6aC+qrNt22QqbWu57V49hwEetY3CwrU5Upq8ZqzXua7U9Z5nljJc8NVcJ609cJ7FKPHv4r/gzpmXvtDArekJrONsO/Icx8aeKqRZJGREh8WZz4ZC0aqxGRLGRViySMis5qVXIyI8VhKVdaNSClwb1SXc1rQyMiaMiLtMcHNNCMCLiEm0LPYzNNPXSnb8FTV/uS+ByMRkLE0/8qUlxpLSX+03sZDlI1IOXpuHc6jhtFDxFOYJU7ZuI243715lKlKLs4yT4Si4vzGaL4PkeptJ7dffrGPDU3tp0n304P4F5v1MP3QeDvdql/UAMWc/heX6L4PkOjSbdkm29iSu2eoLDUlsp0V3UoL4EkIqOxJdysDvqdv7YP8A2H+JQcojQzn8LzqhkLFT2Upr8U04R5ux2MFmdJ661RJezTenLm9S8zYXAoxvqGaeKMAaNgqeJu5V2qu+eiEUFAqeT8l0cOvq4K+zTdpTfj8EXRAuYsSI+I4veSSdJNSqZJcakpRwy4lxiSifcbca5DJTBIpXItZIwbrVNfqRs5vjwXj8ylhqU601TgryfJLe32G1wOEjRgoR3a298nvbNHJ8nnn2njsjmdXvw0qnNx822g/I8tvsrQAB1CxkAAAhAAAIQUsq5Op4mm6dRdsZL1oS3NF0AIqla4tNRiF5VlTJlTDVNCa1O7hNerJcV28VuKiPVsbgqdeDhUipRfNPinuZhMt5uVcPecb1KPtpdaC/Gvjs7itElwcFuys8InZdc7kdy4yY9MjQ9FCJKlX6qWMh8ZEKY5MpvgEJaqxGZNGZUUh6kV3QSkVpTJFIqKY5TIDCKSiuKQukVVUFVQZmym0VrSDSK/SB0g2wU1WNIXSK3SCOoKIZQp3Ma5kDqDHMeIRSUU7mOwtCdaahTV5Pklxb3ImyXkqriHdLRp311JLV+lfaZssn5Pp4eOjBbfWk9cpPi2aMrk50S91zfPd7+aqTM02FcL3eW/28lHkvJ0cPCy1yl68t7fBcEdAAOhYxrGhrRQBYrnFxJJvKAAByagAAEIAABCAAAQgAAELPZVzXo1ryp/VTevqr6uT7Y7u9eZk8o5Gr4f14PR9uHWp893jY9NAXerkGeiQ7jeNvv/teSIVHoeNzew1a7dPQk/tUrQfLY/FHExWZ0lrpVYy4RqpxfNXvyRG6DDctKHlCE7E03+4WYTFTOliM38VDbSlJcabU7+Cd/Io1cNOHrwnD88JQ96IXSQOCttiNf+JB8U1MVSGJi3IHSB1J6kUh2mRXC5EZA6kKbTDTGUqUp+pGT/JFy9xeoZExU9lGa/Pan/NZifYbE1zmt/I033KnpiaZoMLmlUf+JUhFcIJzfwS8ztYPN3D09bi6kuNV6S/bs8hzZBVHz0FuBru98FjsHgq1d2hByW+WyC75PUabJubMIWlVfSS9hXVNd++Xl3GhjBJWSslsS1JDi3DlIbNFetSzo0/Efc24c+KbGKSSSslqSWpJDgAsqigAAEIAABCAAAQgAAEIAABCAAAQgAAEIAABCAABCkKz+W/WZlsRtfcAE0PBbEn+KZht3eaXI3rLwAAenzmC04ABCFiBAAAqVAAAIQAACEAAAhAAAIQAACF//9k=;" vertex="1" parent="1">
                    <mxGeometry x="700" y="-50" width="40" height="40" as="geometry"/>
                </mxCell>
                <mxCell id="30" value="&lt;b&gt;&lt;font color=&quot;#000000&quot;&gt;utilisateur.trice 1&lt;/font&gt;&lt;/b&gt;" style="text;html=1;strokeColor=none;fillColor=none;align=center;verticalAlign=middle;whiteSpace=wrap;rounded=0;labelBorderColor=none;fontColor=#0000ff;" vertex="1" parent="1">
                    <mxGeometry x="665" y="-80" width="110" height="30" as="geometry"/>
                </mxCell>
                <mxCell id="35" style="edgeStyle=none;html=1;fontColor=#000000;startArrow=none;startFill=0;fillColor=#008a00;strokeColor=#005700;strokeWidth=3;" edge="1" parent="1">
                    <mxGeometry relative="1" as="geometry">
                        <mxPoint x="720" y="170" as="sourcePoint"/>
                        <mxPoint x="720" y="120" as="targetPoint"/>
                    </mxGeometry>
                </mxCell>
                <mxCell id="34" value="" style="shape=image;verticalLabelPosition=bottom;labelBackgroundColor=default;verticalAlign=top;aspect=fixed;imageAspect=0;image=data:image/jpeg,/9j/4AAQSkZJRgABAQAAAQABAAD/2wCEAAkGBxAPDxAPEBAQEBAPDw8PDw8NEA8NDw8QFREWFhUVFRUYHSggGBomGxUVITEhJSkrLi4uFx8zODMsNygtLisBCgoKDg0OGhAQFyslHx8tLS0vLS0rLy0tLS0rLS0vLS4rKystLS0rLS0tLS0tLS0tLSswLS0tLS0tLSstKystK//AABEIAOEA4QMBIgACEQEDEQH/xAAbAAABBQEBAAAAAAAAAAAAAAAAAQIDBAYFB//EAEMQAAIBAgEIBgYIBAUFAAAAAAABAgMRBAUGEiExQVGREyJhcYGhFDJSscHRFyNCVGJygpIHssLwM0NjouEVNFNz8f/EABsBAAEFAQEAAAAAAAAAAAAAAAABAgMEBQYH/8QAOhEAAQIDAwkHAwIGAwAAAAAAAQACAwQREiExBRNBUWFxkaHwIlKBscHR4QYUMhVCI3KCwtLxYqKy/9oADAMBAAIRAxEAPwD3EAAEIAABCAAAQgDnY/K1Kjqb0p+xHW/HgcDFZbrVdSfRx4Q9bxlt5WKUxlCDAuJqdQ9dA8SrEKViRLwKDWer1p8TjKVL15qPZe75LWcytnBBepCUu2Vor4sz0YcySKMaLliM78AG8zzu5K8yRhj8jXl1xXSqZcrS2aEO5Xfn8iu8fXltqz/S9H3WK6Q9IpPnI78Yh4kDgFMIUMYNCe603tnN98mxtnxY5IckRFzjiUpATVHtZLGclsk13OwJCpAHOGBTSFLHF1VsqT8Xpe8np5TrLbaXerfIqpCpE7JqM3B54+mCidDYcQF06WWF9qDXanpF2jiqc/Vkr8HqfmcDRBwLsLKsZv50dyPK7koXSzDhctOBwKGMqQ36S4PX57TpYfHwnqfVlwex9zNaBlCDFuwOo+hwPnsVV8FzVdAALyhQAACEAAAhAAAIQAACEABXxWJhSg5zdox2vj2LixCQBUpQK3BPq1Ywi5SajGKu29SRmMp5wSneFG8I7HPZN93srz7jn5VyrPES19Wmn1IfGXF+7314ROdnspud2IRoNek+w5+S1peSDe1Ex1auuG/QsIEsUJFD0YyvFKh6QiQ9IE1KkPSESFQooUxOHoYOQqYU9DkNQ5CppTkPSEQ5IKhMSpAkA5IcmFJojXAlSFsKkqpMLjZQ1SvKPu7jq06ikrxd0cVxHUqkqbvHxW5mnKZRdC7MS9vMe42cNSrxIIdeMV3AIqNVTV14remSnRNcHCoNxVMiiAABUIAABCAAAQoqtWMIuUmlGKvJvYkjC5YynLE1L61Ti+pD4vtfl772deVdOfo8H1YP6xr7U90e5e/uOHTRgZSmy45puAx2nVuHmtmRlrIzjsThsHz5b1LBE8UZzLWcCoXhTSlUXrN9aEeztf8AfYZ6eU8RVd5VpvsjOUY8o2RWl8kxozbZIaDhXE+HzfiKhbMOTe8WjcF6OkPSPN4YmvHXGtVT7JyXxL2EznxNF9fRqx39ItGduyUV70ySJkSM0VY4HZged3NK6Rf+0g8lr8rZWpYWGnUeuV1CnHXObXDs7TC5SzsxNVtQl0Md0aTcJ+Mtt+6xz8rY+eJqyqT2vVGO1QgtkV/e25UprWjTk8mQ4LQXgF228DYBh4nyorUCTZDbVwqVcpVa8nd1ajfHTnfnc6uCy3jKDT6SVSO+FZyqp+L1rwZHgKa1E+NpRS1Ft8KG8WXNBG5K8tcbJaKbltMh5Yp4yDlHqzjZVKbd3F8Vxj2nVR5PknKDwuKp1E7Qc9Ca4wlK0/n3pHrBzU/KiXiCz+Jw9R1oIWTNy+acKYHD260UTkVcq5UpYWk6lR6tkYr1py3RiiyjzXPfHutipQv1aF6UFu04t6T773X6UEhKfcxbJwAqfbxTZSWz8SycBeetqTKueGKrNqEnRjuhRbhLxle7fdbuON/1Cu3fpal+OnK/O5XsT4Wlc6tkvChCjGAeHRPjVdC2DDhto1oA68eK7GTM6cdQa+sdaO+GI0qqf6nrXgz0LNzOGljE7fV1Yq86Mmr29qHtL3b9x5zTwt0JDTo1IVab0ZwkpRktz7eKa1NcGUZmQgxQbIDXawPMeuPks+ZlIUYXAB2g+/vivYkPSPMMq5/YqS0aUIUVZdbRc5t7+tLUl4eJmsRlzGVHeeJrzb41alvBJ2RmQ8kxnCriBz8ruaz4eSIzhVxA2Y+V3Ne6WEcTxbAZUx0GpQxFePYqlRx8YyunyNnm/nnJzjSxeinJxjGsloxu9infV4rV2LaNjZMiwxUEOpqx4KGPkyLDFWkOpqx4Lb06jpy0l4rijrU6iklJbGcuUR+EraErP1ZeTFyfOZp1hx7J5HXuOnjrWRFZaFRiuqAAdEqqAAAQg5mXsf6PQlNevLqU1+J7/DW/A6Zg868b0tdwT6lLqdjn9p+5fpKs5GzUIkYm4dbFZlIGdigHAXnrauRDi9bett622RZVxfRUJzXrW0Y/mepPw2+BNE5Wc/8A26/9sf5ZHPSsJsWOxjsCR16Lp4LA+I0HSVkZO70nrb1tva2T4VkNh1OVmds5tVvubULsUaaYlfCjMJWOkpqSKjqgrPeS0rN4nD2Kp3cXSOPXhZkjb1ZhutBWcNirElfGXW05tgYlhBhCtUlSV3ftR7Rhb6EL7dGN++x5FknCdNiKVK19KcIv8uleXlc9guYGW3CsNum8+Q9CsvKlOwN/t6JXI8jyzf0itfb0tS/fpM9XkzzbOvDOGLqNrVUfSrt0utLz0gyEQIr26x5H5Rkqge4awuJYvYAp2LODnZnSOFy2Igq1aPCwVhMXQTQzB1lYsVpqxTIvWWahyzGUKViPA4fSd2W8oraR4Wqoom0K6CSy5daNGMIX3nEyhVTdkS4rHX1I50nfWNDU2FDIvK9f/h/lWWJwSU3epQaotvW5R0U4N87fpNHJHn38I27Yvh9RztUPQpHKz0MMmHtGFfMA+q5efhiHMvaN/EA+qu4CtpRs9sdXetzLZyKE9Cae7f3M65t5Pj52FQ4tuPoeHOqyYrLLt6AAC+olVyjilRo1Kr+xBtJ75bl4uyPMotttt3bbbb3t7WbLPbE6NGFJbas7vtjDX73Ex0DDynEq8N1Dz+KLcybDpCL+95D5qpSplfDurRnFa2uuu+K2crrxLqWoEZbIjoTw9uIIPBaTXFjg4aF5647htjt5eyY6cnUgupJ7vsyd3bu4cjjWO6gRmR4YiQ8Dy2HaF0UN7YjQ5uB6onUqljoUcScyw6MmhzoYKa+EHLp1KtznYlB0xHOVyMQ6JjIZaorDbD7EuFw0qk404q7lOMYrtfwFIAvKkK0uYOT7yniGtUV0cH+OSV34R/mRuLlTJmDjQoworWoLrP2pvXJ+LLVziZyY+4jOeMMBuHVd5K5mZi52IXaNG5NmzL56YLTpxrJNyptRf5W9T8JX/cjUVCniqUZxlCSvGUXGS7GhJSOYEVsQaMd2B5YbUS0UwogeNHlpXlwidncuZSwcqFSUJbpdV+1F7H/faVLHdAtc0Oaag3hdOKOFRgV0MLiS3LE6jiJ2H9MyJ0O9QPgglS4ypcpD5O42wWU9raCiZYSw+x3c1M35Yysm040YNSqT2XXsx/E/Ja+F4or2w2F7zQDr/SbEe2G0vcbgtx/DvAOjg9OUdGVefScH0ajorz03+pGpuQ0oqKUYpKMUoxS1JJKySH3ONjRTFiOedJ69lxkeIYsR0Q6SnSOphKmlBPfv70clsu5MnrlHua+PwLmTIlmPZ7wp6jraqkZvZrqXRAAOkVNYPPatpYmMN1OlFfqk235aJxYFrOGrp4yu/wAej+xKP9JUgc1NG1Fcdvwupl22ITRsCswHyiMgTRKDlIoKlNSTi0mmrNPWmjL5XyLKnecLuG1260o9/FdprpUxrRZkp+JKPtMvBxBwPsdo4FSQJh8F1W4aQvO7DbGuyjkSFS8odSe22pQk+7d4GdxWT6lN9aMre1FN38TsJSfgTQow0d3Tj8+HjQ3LcgTUON+Jv1HH5VKwWJLDbFyyp6JmibnNHI3QwVeaaqTV4p7Ywdtfe/d3soZsZA0nGtWXVTvCEvtvU9Jp/Z/vZt2RzOWMoA1l4Z/mP9v+XDWsXKE2DWEw7/b34a0AIIc8slPK80TDJq4qULhZw5L6eGlFfWxT0fxLfH5GGlDRdnqa1NPcepNGazkyLpJ1qa622cVtltbku3jx9+/kmfDP4EQ3HA6th2Hkdhu1ZGbDf4bzdoOpZCwWHNW2jTpCFs0SDbFzB5Pq1paNOnOT36MXorvk9S8TX5FzShC08Q1Oa1qMfUX5ntl3LV3lOanIMuO2b9Qx4aN5uVWPMw4A7Rv1afjxXAzdzbq4uSlK8KKfWnK6crbVFb327F5HpuBw1OjTjTpxUYRWpceLb3vtG0opJJJJJWSSskuCRJGRys5OxJl19wGA9TrPQAXNzc0+YN9wGA99ZU6Y5MhTHJlJUaKW5PgZ2qR7b+a/+FW4tOdpRfBryHwn2IjXaiD14Jjm1BC0YAB21grKqvKcfU0q9WXtVakuc2xIELleTfFt+ZJBnKRLyV2AFAArMCxErwZNFlRwSFTxCVJPZq9wkSWJWcQMSoyqs6bW0hqU9z8zpjJUIvs7gEVukhNKz+JyRSnr0dF8YWj5bPIlyZm7RTU5RcktinotN9yWtd52I4RX1u64bCyXv1OYs2BGNP5vXHmpTMxrNkPNN6cA24NlMObrCr0QIFxB1putFEolxLhcW03WloiSEsLcBbTdaWhXKxub+HrNycXFt3bpaMbvtTTXkMwmbWGg72lN/wCrJNckkn4nXuOuWhPxw2wIppv9ceamz8YCyHmm9FGlGCUYpRitkYJRS8ETJkSY5Mq2m61WLSpkx8WRJjkxAQcFGQp0xyZFFj0wUZCkuDYy4XEN4TaLv+lgcnpQNz9RdrVP7cLAbG1wbXmTQYmOhoV6sfYq1I8ptCQZViChIXQjBWYMsRZVgyzBlV4Qpos8px2MrRrVI9LV6tSUf8Se6TXE9UizzDOejoYyuuM5T/faf9R0f0o5ufisOloPA0/uTKXr3rCUYTpwnFRcZQhKLSVmnFNMl9EXsrkjyjND+Ik8HSjh69N1qMNUJRlo1KcfZu9Uo8FqtxtZLT/SxhPu1fnR+ZuPl4zTQNqsN8pHa6gaTuWw9EXs+SD0RcFyRj/pYwn3avzo/MPpXwn3avzo/MZmY3cKb9tMdw9eK2Hoi4Lkg9EXBckY/wClfCfd6/Ol8w+lfCfdq/Oj8wzMbuHrxR9tMdw9eK2Hoi4Lkg9Ej7PkjH/SthPu1fnS+YfSvhPu1fnS+YZmN3Cj7aZ7hWw9Ej7K5IPRI+yuSMf9K+E+7V+dL5h9K2E+7V+dL5hmY3cKPtpnuFbD0SPsrkg9Ej7K5Ix/0r4T7tX50fmH0r4T7vX50vmGZjdwo+2mO4VsPRI+yuSD0SPsrkjH/SvhPu9fnS+YfSxhPu1fnR+YZmN3Cj7aY7hWw9EXsrkgWEXBckY/6WMJ93r/ALqPzOHnL/E6delKlhaUqOnFxlUnJdMotWaho6ov8V32Wesc2XjE0s03pzZSYcaWSN6xuWcpVHiq7hWqaDxFZw0ak9HR6WVra9lj1zAJqlTT1tU6ad9buoo8Wyfh+krUof8AkqQj+6SXxPbkZP1UWgQYY/5H/wAgeq1ojQKBSJj0yNMcmcgoCFJcLjbiNjTcExWdAU6fogG1+nuVPPhefZwUtDGYiP8AqSl+/r/1FSDO1n1R0MXpbqtKEr/iV4vyUThwYkdtHuG1bcu61Ca7YPJWIMsQZWgyaDKTmqVWYsxGfuG0a1OruqU7P80Xr8pRNtFnHzuwfS4WTXrUmqi/KlaXk7+BdyNHzE8wnB3ZP9Vw50SaV5zYWw6w6x6NVS2VHYWw6wthKp1lMsFh9gsFUtlNsGiOsLYSqLKZohYfYSwVRZTbCWH2CwtUWUywliSwlgqksplgsSWG2Fqksru5jYTpMbTlupKVV+Csv90onqaMf/D3AaFGpXe2rLQj+SO1rvk3+015599QTOdnXAYMAb44nmaHcqMX8k9D0yND0YVVCU64tOOlKMeLXvsNuWclw0q0Fwd+Sv77DoTLb2s1kDjconmy0nUtQAAd1nCsKiyP8QcNelSrL/Lm4P8ALNbecUvExMGeqZawXT4erS3zg9G/trXHzSPKI/3cxZ1lH11+nQXQZMiWoNnunkb/ADqrUGTQZWgyaDM1zVpK1BkrSaaetNWae9FaEixFlZ7U0rzbLWT3h686e694PjB+q/h4Mo2PQM5sl+kUtKCvVpXceM4749+9f8mC0baj0LJU/wDeS4cT2m3O36/6sd9R+1WYfaCbYWwthbGhVS2UlhLD7BYS0lsplgsPsFgqlsplgsPsFgqiymWFsOsFgtJLKZYSw+wlhapLKbYnwGElWqwpQXWnKMV2cW+xK78CKxvMyMjdHH0ma6842pp/Zpv7Xe/d3lLKE82TgGKccGjWdHDE7BrooYrs22q0uCw0aNOFKHq04qK8FtfaWENQ481c4k1OJWYnIW40W4xNonXOtm9TvKc+CSXe3d+5czi3NRkehoUY8Zdd+OzysaGS4duYB0Nv9B7+CqTbrMKmtXwADqFkIPMc78n9DiptK0K16seF2+uv3a+6SPTjh515L9Jw70VerSvOnba9XWj4rzSK8zDtsuxCuSMfNRb8DcV5vBk8JFWLJosxXBdKrUJEsJFWEiaMis5qFaizMZzZC216K1PXUgtz3zS9/M0UJE0ZEkpNxJSLnIfiNBGo9XG9DXFpqF5c4iWNnlnNtVL1KNoz2uGyMn+H2X5dxk61CUJOM4uLW1SVmdzJz8GbZahm/SDiN/uLttblfhva8XKGwth1hbFuqlDU2wlh9gsFU6ymWFsOsFgqiymWCw+wlhQUllMsJYmp03JqKTbbslFNtvsRrMg5qO6qYhW3ql9p/n+XPgVZudgyrLcU01DSdw9TQKGK9sMVcqWaub7rSVaqrUou8Yv/ADGv6ePHZxN8JCKSSSSSVklqSQpwU/PxJyLbfcBcBqHudJ3YAADIixDEdUpwCBcoKJOuFxlxHIRIVZwGH6WrGG5u8uxLb8vE2Rx838HoQ6RrrVNnZDdz28jsHUZMl81BtEXuv8NHW1Y03FtvoMB0UAAGiqqAAAQvO88cj9DU6aC+qrNt22QqbWu57V49hwEetY3CwrU5Upq8ZqzXua7U9Z5nljJc8NVcJ609cJ7FKPHv4r/gzpmXvtDArekJrONsO/Icx8aeKqRZJGREh8WZz4ZC0aqxGRLGRViySMis5qVXIyI8VhKVdaNSClwb1SXc1rQyMiaMiLtMcHNNCMCLiEm0LPYzNNPXSnb8FTV/uS+ByMRkLE0/8qUlxpLSX+03sZDlI1IOXpuHc6jhtFDxFOYJU7ZuI243715lKlKLs4yT4Si4vzGaL4PkeptJ7dffrGPDU3tp0n304P4F5v1MP3QeDvdql/UAMWc/heX6L4PkOjSbdkm29iSu2eoLDUlsp0V3UoL4EkIqOxJdysDvqdv7YP8A2H+JQcojQzn8LzqhkLFT2Upr8U04R5ux2MFmdJ661RJezTenLm9S8zYXAoxvqGaeKMAaNgqeJu5V2qu+eiEUFAqeT8l0cOvq4K+zTdpTfj8EXRAuYsSI+I4veSSdJNSqZJcakpRwy4lxiSifcbca5DJTBIpXItZIwbrVNfqRs5vjwXj8ylhqU601TgryfJLe32G1wOEjRgoR3a298nvbNHJ8nnn2njsjmdXvw0qnNx822g/I8tvsrQAB1CxkAAAhAAAIQUsq5Op4mm6dRdsZL1oS3NF0AIqla4tNRiF5VlTJlTDVNCa1O7hNerJcV28VuKiPVsbgqdeDhUipRfNPinuZhMt5uVcPecb1KPtpdaC/Gvjs7itElwcFuys8InZdc7kdy4yY9MjQ9FCJKlX6qWMh8ZEKY5MpvgEJaqxGZNGZUUh6kV3QSkVpTJFIqKY5TIDCKSiuKQukVVUFVQZmym0VrSDSK/SB0g2wU1WNIXSK3SCOoKIZQp3Ma5kDqDHMeIRSUU7mOwtCdaahTV5Pklxb3ImyXkqriHdLRp311JLV+lfaZssn5Pp4eOjBbfWk9cpPi2aMrk50S91zfPd7+aqTM02FcL3eW/28lHkvJ0cPCy1yl68t7fBcEdAAOhYxrGhrRQBYrnFxJJvKAAByagAAEIAABCAAAQgAAELPZVzXo1ryp/VTevqr6uT7Y7u9eZk8o5Gr4f14PR9uHWp893jY9NAXerkGeiQ7jeNvv/teSIVHoeNzew1a7dPQk/tUrQfLY/FHExWZ0lrpVYy4RqpxfNXvyRG6DDctKHlCE7E03+4WYTFTOliM38VDbSlJcabU7+Cd/Io1cNOHrwnD88JQ96IXSQOCttiNf+JB8U1MVSGJi3IHSB1J6kUh2mRXC5EZA6kKbTDTGUqUp+pGT/JFy9xeoZExU9lGa/Pan/NZifYbE1zmt/I033KnpiaZoMLmlUf+JUhFcIJzfwS8ztYPN3D09bi6kuNV6S/bs8hzZBVHz0FuBru98FjsHgq1d2hByW+WyC75PUabJubMIWlVfSS9hXVNd++Xl3GhjBJWSslsS1JDi3DlIbNFetSzo0/Efc24c+KbGKSSSslqSWpJDgAsqigAAEIAABCAAAQgAAEIAABCAAAQgAAEIAABCAABCkKz+W/WZlsRtfcAE0PBbEn+KZht3eaXI3rLwAAenzmC04ABCFiBAAAqVAAAIQAACEAAAhAAAIQAACF//9k=;" vertex="1" parent="1">
                    <mxGeometry x="700" y="200" width="40" height="40" as="geometry"/>
                </mxCell>
                <mxCell id="36" value="&lt;b&gt;&lt;font color=&quot;#000000&quot;&gt;utilisateur.trice 2&lt;br&gt;&lt;/font&gt;&lt;/b&gt;" style="text;html=1;strokeColor=none;fillColor=none;align=center;verticalAlign=middle;whiteSpace=wrap;rounded=0;labelBorderColor=none;fontColor=#0000ff;" vertex="1" parent="1">
                    <mxGeometry x="665" y="240" width="110" height="30" as="geometry"/>
                </mxCell>
                <mxCell id="39" value="" style="edgeStyle=none;html=1;fontColor=#000000;startArrow=none;startFill=0;fillColor=#60a917;strokeColor=#2D7600;endArrow=none;" edge="1" parent="1" source="29" target="32">
                    <mxGeometry relative="1" as="geometry">
                        <mxPoint x="720" y="59.99999999999977" as="targetPoint"/>
                        <mxPoint x="720" as="sourcePoint"/>
                    </mxGeometry>
                </mxCell>
                <mxCell id="32" value="" style="shape=image;verticalLabelPosition=bottom;labelBackgroundColor=default;verticalAlign=top;aspect=fixed;imageAspect=0;image=https://upload.wikimedia.org/wikipedia/commons/thumb/c/c3/Python-logo-notext.svg/1869px-Python-logo-notext.svg.png;" vertex="1" parent="1">
                    <mxGeometry x="706.2999999999998" width="27.41" height="30" as="geometry"/>
                </mxCell>
                <mxCell id="42" value="" style="edgeStyle=none;html=1;fontColor=#000000;startArrow=none;startFill=0;fillColor=#008a00;strokeColor=#005700;endArrow=none;" edge="1" parent="1" target="41">
                    <mxGeometry relative="1" as="geometry">
                        <mxPoint x="720" y="179.99999999999977" as="sourcePoint"/>
                        <mxPoint x="720" y="119.99999999999977" as="targetPoint"/>
                    </mxGeometry>
                </mxCell>
                <mxCell id="41" value="" style="shape=image;verticalLabelPosition=bottom;labelBackgroundColor=default;verticalAlign=top;aspect=fixed;imageAspect=0;image=https://upload.wikimedia.org/wikipedia/commons/thumb/a/a0/Firefox_logo%2C_2019.svg/1971px-Firefox_logo%2C_2019.svg.png;" vertex="1" parent="1">
                    <mxGeometry x="703.17" y="147.5" width="33.66" height="35" as="geometry"/>
                </mxCell>
            </root>
        </mxGraphModel>
    </diagram>
</mxfile>